<?xml version="1.0" encoding="UTF-8" standalone="no"?>
<!-- Created with Inkscape (http://www.inkscape.org/) -->

<svg
   width="32"
   height="32"
   viewBox="0 0 8.4666664 8.4666672"
   version="1.1"
   id="svg5"
   inkscape:version="1.1 (c68e22c387, 2021-05-23)"
   sodipodi:docname="logo.svg"
   xmlns:inkscape="http://www.inkscape.org/namespaces/inkscape"
   xmlns:sodipodi="http://sodipodi.sourceforge.net/DTD/sodipodi-0.dtd"
   xmlns="http://www.w3.org/2000/svg"
   xmlns:svg="http://www.w3.org/2000/svg">
  <sodipodi:namedview
     id="namedview7"
     pagecolor="#ffffff"
     bordercolor="#666666"
     borderopacity="1.0"
     inkscape:pageshadow="2"
     inkscape:pageopacity="0.0"
     inkscape:pagecheckerboard="0"
     inkscape:document-units="mm"
     showgrid="false"
     inkscape:zoom="10.482005"
     inkscape:cx="29.145188"
     inkscape:cy="21.990068"
     inkscape:window-width="1920"
     inkscape:window-height="1017"
     inkscape:window-x="1358"
     inkscape:window-y="-8"
     inkscape:window-maximized="1"
     inkscape:current-layer="layer1"
     units="px" />
  <defs
     id="defs2" />
  <g
     inkscape:label="Capa 1"
     inkscape:groupmode="layer"
     id="layer1">
    <g
       id="g1079"
       transform="matrix(0.07912926,0,0,0.07912926,-1.8477526,-0.67818584)">
      <path
         d="m 128.87025,108.31761 c 0,0 -1.5941,-0.6193 -4.35475,-1.78162 -1.36513,-0.63708 -3.09487,-1.13853 -5.01995,-1.85657 -1.91313,-0.74779 -4.1529,-1.34377 -6.56305,-2.07277 -0.60226,-0.18025 -1.21646,-0.36463 -1.84368,-0.5503 -0.63699,-0.14888 -1.28592,-0.2993 -1.94352,-0.45141 -1.31305,-0.31797 -2.67058,-0.64686 -4.06501,-0.98424 -1.39878,-0.31797 -2.85506,-0.52739 -4.32979,-0.807156 -1.479077,-0.255004 -2.977682,-0.587063 -4.52946,-0.739204 -1.540929,-0.199635 -3.110068,-0.407822 -4.697658,-0.615086 -1.589761,-0.16826 -3.207733,-0.246391 -4.832219,-0.391734 -0.8117,-0.06521 -1.626655,-0.130424 -2.44595,-0.197482 -0.81821,-0.03907 -1.640762,-0.03814 -2.465484,-0.06613 -1.648359,-0.04368 -3.302142,-0.08828 -4.958097,-0.132578 -1.660294,0.0446 -3.320589,0.0889 -4.974372,0.134731 -0.833405,0.02768 -1.672233,0.03076 -2.4937,0.07044 -0.812783,0.06614 -1.622312,0.130117 -2.428586,0.195329 -1.615803,0.145497 -3.217502,0.225474 -4.804005,0.393026 -1.586504,0.208249 -3.154561,0.414097 -4.696572,0.615086 -1.551778,0.150726 -3.050384,0.486138 -4.527288,0.740066 -1.476904,0.278992 -2.933187,0.489642 -4.331959,0.806292 -1.394429,0.33735 -2.751965,0.66627 -4.065011,0.98424 -0.657606,0.15288 -1.305445,0.30391 -1.942436,0.45141 -0.62722,0.18641 -1.241423,0.36875 -1.843685,0.54898 -2.410142,0.72945 -4.648825,1.3263 -6.570646,2.07494 -1.931583,0.71848 -3.664586,1.22286 -5.018864,1.85455 -2.748387,1.1533 -4.350732,1.77725 -4.350732,1.77725 0,0 1.4603,-0.94179 4.07152,-2.52503 1.287324,-0.84103 2.942193,-1.62351 4.826033,-2.57727 0.473129,-0.23655 0.960365,-0.48072 1.462794,-0.7325 0.251774,-0.12581 0.506769,-0.25254 0.76504,-0.38195 0.262602,-0.11289 0.530642,-0.22455 0.800848,-0.34076 1.09167,-0.446 2.234343,-0.91347 3.430189,-1.40311 0.600093,-0.24424 1.211039,-0.490379 1.833922,-0.744306 0.633733,-0.215016 1.279404,-0.432861 1.935924,-0.654552 1.318469,-0.42517 2.683602,-0.865968 4.086712,-1.316946 1.410711,-0.421388 2.880017,-0.746925 4.373197,-1.139429 1.494265,-0.383275 3.02651,-0.768519 4.602165,-1.013987 1.573479,-0.271307 3.174093,-0.54972 4.794236,-0.829917 1.628824,-0.238701 3.296716,-0.374385 4.972204,-0.552365 0.836659,-0.0849 1.679827,-0.169182 2.522996,-0.253773 0.836659,-0.06398 1.666806,-0.06952 2.50238,-0.105201 1.684168,-0.05568 3.377016,-0.113199 5.067696,-0.16826 1.698275,0.05783 3.395467,0.114122 5.087233,0.170413 0.844254,0.03353 1.690677,0.04522 2.529508,0.1092 0.837742,0.0849 1.674401,0.16949 2.506717,0.253773 1.663553,0.17718 3.318421,0.313726 4.943991,0.550274 1.619057,0.280843 3.21967,0.559102 4.79315,0.832439 1.575654,0.242085 3.105731,0.631666 4.601079,1.014418 1.49318,0.390873 2.96357,0.714257 4.37428,1.138536 1.40094,0.45144 2.76607,0.891038 4.08563,1.316208 0.6576,0.221168 1.30328,0.439598 1.93701,0.65446 0.62288,0.25285 1.23383,0.500255 1.83283,0.744395 1.19585,0.48962 2.33961,0.95711 3.42803,1.40311 0.27238,0.11381 0.54041,0.22793 0.8041,0.33944 0.25827,0.13073 0.51436,0.25747 0.76612,0.38328 0.5046,0.25192 0.99292,0.49724 1.46714,0.73369 1.88926,0.95373 3.54956,1.74135 4.82462,2.57607 2.59896,1.57552 4.06718,2.51949 4.06718,2.51949"
         style="fill:#b4a04c;fill-opacity:1;fill-rule:nonzero;stroke:none;stroke-width:0.108516"
         id="path154" />
      <path
         d="M 61.386317,66.798424 V 24.694317 l -9.193478,3.712333 v 34.668684 l 0.873554,0.359098 8.319924,3.363992"
         style="fill:#b4a04c;fill-opacity:1;fill-rule:nonzero;stroke:none;stroke-width:0.108516"
         id="path156" />
      <path
         d="m 69.502229,70.076811 v 26.123058 c 2.258219,-0.150726 4.530542,-0.236548 6.81806,-0.251005 V 53.698383 l 2.424246,-0.978705 7.766492,-3.144025 1.260956,-0.512099 0.406936,-0.166107 3.666756,-1.483207 7.359555,-2.977764 1.43675,-0.570576 V 28.406589 L 76.415782,18.613018 65.749744,22.928702 V 68.56392 l 1.328236,0.532801 2.424249,0.980028"
         style="fill:#b4a04c;fill-opacity:1;fill-rule:nonzero;stroke:none;stroke-width:0.108516"
         id="path158" />
      <path
         d="M 87.771983,96.451735 V 53.25128 l -7.572248,3.064724 v 39.66768 c 2.5447,0.06952 5.067699,0.231319 7.572248,0.468051"
         style="fill:#b4a04c;fill-opacity:1;fill-rule:nonzero;stroke:none;stroke-width:0.108516"
         id="path160" />
      <path
         d="m 121.03322,104.76373 h 0.0879 V 56.316004 l -20.46178,-8.28108 -0.0172,0.0092 -8.796305,3.559444 v 45.299886 c 10.169035,1.330205 19.960435,4.019316 29.187545,7.860586"
         style="fill:#b4a04c;fill-opacity:1;fill-rule:nonzero;stroke:none;stroke-width:0.108516"
         id="path162" />
      <path
         d="M 41.555015,101.62143 V 71.094581 l -3.966258,1.600589 v 30.30094 c 1.310872,-0.48411 2.634767,-0.93844 3.966258,-1.37468"
         style="fill:#b4a04c;fill-opacity:1;fill-rule:nonzero;stroke:none;stroke-width:0.108516"
         id="path164" />
      <path
         d="M 65.623866,96.517809 V 72.69517 l -4.237549,-1.716709 -9.193478,-3.724382 -0.581646,-0.231934 -6.17673,2.502146 v 30.893639 c 6.527239,-1.886327 13.278018,-3.202505 20.189403,-3.900275"
         style="fill:#b4a04c;fill-opacity:1;fill-rule:nonzero;stroke:none;stroke-width:0.108516"
         id="path166" />
    </g>
  </g>
</svg>
